# xmcd
#
# Track frame offsets: 
#        150
#        15199
#        31805
#        50538
#        64521
#        77086
#        89918
#        105417
#        120470
#        135987
#
# Disc length: 2087 seconds
#
# Revision: 0
# Processed by: cddbd v1.5.2PL0 Copyright (c) Steve Scherf et al.
# Submitted via: ExactAudioCopy v0.99pb3
#
DISCID=6f08250a
DTITLE=Piotr Polk - polk in love
DYEAR=2008
DGENRE=Blues
TTITLE0=l.o.v.e.
TTITLE1=it's de-lovely
TTITLE2=what a wonderful world
TTITLE3=on the sunny side of the street
TTITLE4=smile
TTITLE5=friends
TTITLE6=all the way
TTITLE7=fly me to the moon
TTITLE8=learning' the blues
TTITLE9=always on my mind
EXTD=
EXTT0=
EXTT1=
EXTT2=
EXTT3=
EXTT4=
EXTT5=
EXTT6=
EXTT7=
EXTT8=
EXTT9=
PLAYORDER=
